<?xml version="1.0" encoding="UTF-8"?>
<!DOCTYPE svg PUBLIC "-//W3C//DTD SVG 1.1//EN" "http://www.w3.org/Graphics/SVG/1.1/DTD/svg11.dtd">
<svg xmlns="http://www.w3.org/2000/svg" version="1.1" width="512px" height="512px" style="shape-rendering:geometricPrecision; text-rendering:geometricPrecision; image-rendering:optimizeQuality; fill-rule:evenodd; clip-rule:evenodd" xmlns:xlink="http://www.w3.org/1999/xlink">
<g><path style="opacity:0.99" fill="#aee090" d="M 240.5,7.5 C 281.959,5.69217 321.626,13.1922 359.5,30C 371.381,34.1913 375.881,42.358 373,54.5C 369.993,61.7681 364.493,65.7681 356.5,66.5C 342.633,61.0706 328.633,55.904 314.5,51C 230.42,30.2232 158.253,50.7232 98,112.5C 47.4138,171.522 31.7472,238.855 51,314.5C 74.8333,387.667 123.333,436.167 196.5,460C 279.359,480.371 350.859,460.538 411,400.5C 465.624,337.568 481.124,265.901 457.5,185.5C 460.105,171.194 468.438,166.028 482.5,170C 484.754,171.377 486.92,172.877 489,174.5C 497.24,195.699 501.907,217.699 503,240.5C 505.539,340.61 464.705,417.11 380.5,470C 307.915,509.687 233.248,514.02 156.5,483C 83.7762,449.272 36.6095,393.772 15,316.5C -5.7851,218.868 20.0482,136.035 92.5,68C 135.322,32.0949 184.655,11.9282 240.5,7.5 Z"/></g>
<g><path style="opacity:0.995" fill="#6ab576" d="M 481.5,7.5 C 494.578,6.58486 501.912,12.5849 503.5,25.5C 503.239,29.4499 502.072,33.1166 500,36.5C 434.212,150.579 368.045,264.412 301.5,378C 289.612,385.74 278.112,385.24 267,376.5C 222.577,315.989 177.911,255.655 133,195.5C 125.506,185.796 125.673,176.296 133.5,167C 139.457,163.237 145.79,162.571 152.5,165C 191.667,186.833 230.833,208.667 270,230.5C 338.833,157 407.667,83.5 476.5,10C 478.315,9.24316 479.981,8.40982 481.5,7.5 Z"/></g>
</svg>
