<svg xmlns="http://www.w3.org/2000/svg" width="19" height="22" viewBox="0 0 19 22" fill="none">
  <path d="M13.8786 2.87754C13.7421 2.87679 13.6074 2.90754 13.4864 2.9671C13.3654 3.02666 13.2617 3.11323 13.1843 3.21925C12.9134 3.58255 12.5243 4.1185 12.0894 4.75157C10.964 3.03221 9.85387 1.4927 9.09852 0.467566C8.99105 0.323149 8.84827 0.205262 8.68227 0.123876C8.51626 0.0424902 8.3319 0 8.1448 0C7.95769 0 7.77333 0.0424902 7.60733 0.123876C7.44132 0.205262 7.29854 0.323149 7.19107 0.467566C5.02803 3.38472 5.1e-09 10.5319 5.1e-09 13.9023C-7.10727e-05 15.797 0.742808 17.6249 2.08577 19.0343C3.42874 20.4438 5.27696 21.3354 7.275 21.5375C9.27304 21.7397 11.2798 21.2383 12.9094 20.1296C14.539 19.0209 15.6763 17.3833 16.1027 15.5317C16.9363 15.1407 17.638 14.5385 18.1292 13.7927C18.6204 13.0468 18.8817 12.1868 18.8837 11.3089C18.8837 9.25498 15.87 4.96739 14.5729 3.21925C14.4949 3.1138 14.391 3.02767 14.2701 2.96818C14.1493 2.90868 14.0149 2.87759 13.8786 2.87754ZM8.1448 20.8624C6.18767 20.8604 4.31131 20.1265 2.92741 18.8216C1.54351 17.5168 0.765099 15.7476 0.762979 13.9023C0.762979 10.647 6.16105 3.11134 7.81672 0.881218C7.85402 0.831989 7.90326 0.791867 7.96032 0.764186C8.01738 0.736504 8.08062 0.722064 8.1448 0.722064C8.20897 0.722064 8.27221 0.736504 8.32927 0.764186C8.38634 0.791867 8.43557 0.831989 8.47288 0.881218C10.1285 3.11134 15.5266 10.647 15.5266 13.9023C15.5245 15.7476 14.7461 17.5168 13.3622 18.8216C11.9783 20.1265 10.1019 20.8604 8.1448 20.8624Z" fill="#020419"/>
</svg>