<svg width="20" height="21" viewBox="0 0 20 21" fill="none" xmlns="http://www.w3.org/2000/svg">
<g id="plus">
<path id="Vector" fill-rule="evenodd" clip-rule="evenodd" d="M10 5.5C10.2652 5.5 10.5196 5.60536 10.7071 5.79289C10.8946 5.98043 11 6.23478 11 6.5V9.5H14C14.2652 9.5 14.5196 9.60536 14.7071 9.79289C14.8946 9.98043 15 10.2348 15 10.5C15 10.7652 14.8946 11.0196 14.7071 11.2071C14.5196 11.3946 14.2652 11.5 14 11.5H11V14.5C11 14.7652 10.8946 15.0196 10.7071 15.2071C10.5196 15.3946 10.2652 15.5 10 15.5C9.73478 15.5 9.48043 15.3946 9.29289 15.2071C9.10536 15.0196 9 14.7652 9 14.5V11.5H6C5.73478 11.5 5.48043 11.3946 5.29289 11.2071C5.10536 11.0196 5 10.7652 5 10.5C5 10.2348 5.10536 9.98043 5.29289 9.79289C5.48043 9.60536 5.73478 9.5 6 9.5H9V6.5C9 6.23478 9.10536 5.98043 9.29289 5.79289C9.48043 5.60536 9.73478 5.5 10 5.5Z" fill="#1F2A37"/>
</g>
</svg>
